# xmcd
#
# Track frame offsets:
# 182
# 13975
# 25732
# 42760
# 53037
# 65080
# 75780
# 88940
# 97767
# 111055
# 124955
# 141035
#
# Disc length: 2020 seconds
#
#
# Revision: 2
# Processed by: cddbd v1.5.2PL0 Copyright (c) Steve Scherf et al.
# Submitted via: FreeRIP 2.945 
#
DISCID=9307e20c
DTITLE=Tonico e Tinoco - Som da Terra
DYEAR=1900
DGENRE=Sertanejo
TTITLE0=Moda da Mula Preta
TTITLE1=Que Linda Morena
TTITLE2=Chico Mulato
TTITLE3=Mineirinha
TTITLE4=Pingo D'agua
TTITLE5=Segredo Se Guarda
TTITLE6=Feijão Queimado
TTITLE7=Estrada da Vida
TTITLE8=Boiadeiro Apaixonado
TTITLE9=João Carreiro
TTITLE10=Cavalo Zaino
TTITLE11=Baile na Colina
EXTD=
EXTT0=
EXTT1=
EXTT2=
EXTT3=
EXTT4=
EXTT5=
EXTT6=
EXTT7=
EXTT8=
EXTT9=
EXTT10=
EXTT11=
PLAYORDER=
